<?xml version="1.0" encoding="UTF-8" standalone="no"?>
<!-- Created with Inkscape (http://www.inkscape.org/) -->

<svg
   xmlns:dc="http://purl.org/dc/elements/1.1/"
   xmlns:cc="http://creativecommons.org/ns#"
   xmlns:rdf="http://www.w3.org/1999/02/22-rdf-syntax-ns#"
   xmlns:svg="http://www.w3.org/2000/svg"
   xmlns="http://www.w3.org/2000/svg"
   xmlns:sodipodi="http://sodipodi.sourceforge.net/DTD/sodipodi-0.dtd"
   xmlns:inkscape="http://www.inkscape.org/namespaces/inkscape"
   width="110.40127mm"
   height="39.622135mm"
   viewBox="0 0 110.40127 39.622135"
   version="1.1"
   id="svg1209"
   inkscape:version="0.92.2 (5c3e80d, 2017-08-06)"
   sodipodi:docname="logotipotransparente.svg"
   inkscape:export-filename="C:\Users\mr__h\Downloads\Configurala\configuralabeta4.png"
   inkscape:export-xdpi="96"
   inkscape:export-ydpi="96">
  <defs
     id="defs1203" />
  <sodipodi:namedview
     id="base"
     pagecolor="#ffffff"
     bordercolor="#666666"
     borderopacity="1.0"
     inkscape:pageopacity="0.0"
     inkscape:pageshadow="2"
     inkscape:zoom="0.76818716"
     inkscape:cx="-245.98436"
     inkscape:cy="269.88004"
     inkscape:document-units="mm"
     inkscape:current-layer="g882"
     showgrid="false"
     inkscape:window-width="1920"
     inkscape:window-height="1017"
     inkscape:window-x="1358"
     inkscape:window-y="-8"
     inkscape:window-maximized="1"
     showguides="false" />
  <metadata
     id="metadata1206">
    <rdf:RDF>
      <cc:Work
         rdf:about="">
        <dc:format>image/svg+xml</dc:format>
        <dc:type
           rdf:resource="http://purl.org/dc/dcmitype/StillImage" />
        <dc:title />
      </cc:Work>
    </rdf:RDF>
  </metadata>
  <g
     inkscape:label="Capa 1"
     inkscape:groupmode="layer"
     id="layer1"
     transform="translate(-45.801897,-114.89572)">
    <g
       id="g874" />
    <g
       id="g913">
      <g
         id="g882">
        <rect
           style="opacity:1;fill:#11bf4b;fill-opacity:1;fill-rule:nonzero;stroke:#11bf4b;stroke-width:0.3061364;stroke-miterlimit:4;stroke-dasharray:none;stroke-opacity:1"
           id="rect983-0-0-2-4-9-7-8-7-6-0-4-0-1-9-6"
           width="6.6527734"
           height="43.169769"
           x="181.0645"
           y="108.3345"
           ry="3.1814861"
           inkscape:export-xdpi="96"
           inkscape:export-ydpi="96" />
        <rect
           style="opacity:1;fill:#007ca5;fill-opacity:1;fill-rule:nonzero;stroke:#007ca5;stroke-width:0.3057068;stroke-miterlimit:4;stroke-dasharray:none;stroke-opacity:1"
           id="rect983-9-2-3-4-4-8-0-4-5-2-9"
           width="6.6527915"
           height="43.048603"
           x="167.20444"
           y="111.31641"
           ry="3.1814892"
           inkscape:export-xdpi="96"
           inkscape:export-ydpi="96" />
        <rect
           style="opacity:1;fill:#ffbf00;fill-opacity:1;fill-rule:nonzero;stroke:#ffbf00;stroke-width:0.30484152;stroke-miterlimit:4;stroke-dasharray:none;stroke-opacity:1"
           id="rect983-5-1-8-1-0-8-0-6-7-1-1-7"
           width="6.60465"
           height="43.117283"
           x="174.1617"
           y="104.00887"
           ry="3.1574361"
           inkscape:export-xdpi="96"
           inkscape:export-ydpi="96" />
        <rect
           ry="3.3196235"
           style="opacity:1;fill:#f15025;fill-opacity:1;fill-rule:nonzero;stroke:#f15025;stroke-width:0.31079811;stroke-miterlimit:4;stroke-dasharray:none;stroke-opacity:1"
           id="rect983-6-7-9-7-6-1-5-0-4-0-0-9"
           width="6.8567057"
           height="43.171165"
           x="188.00478"
           y="101.12119"
           inkscape:export-xdpi="96"
           inkscape:export-ydpi="96" />
        <g
           id="g864"
           transform="matrix(1.3515694,0,0,1.3515694,-16.102552,-54.323757)"
           inkscape:export-xdpi="96"
           inkscape:export-ydpi="96">
          <path
             d="m 52.810181,136.35751 0.2667,-0.19261 q 0.503767,-0.29634 0.7112,-0.29634 0.459316,0 0.992716,0.82974 0.325966,0.51858 0.325966,0.82973 0,0.31115 -0.207432,0.51858 -0.192612,0.20744 -0.459318,0.37042 -0.2667,0.16298 -0.518582,0.31115 -0.237067,0.14818 -0.992718,0.38523 -0.755648,0.23707 -1.466849,0.23707 -0.696382,0 -1.4224,-0.17781 -0.711201,-0.19261 -1.481667,-0.6223 -0.755649,-0.4445 -1.363132,-1.0668 -0.607484,-0.63711 -1.007534,-1.61501 -0.385234,-0.99272 -0.385234,-2.14842 0,-1.1557 0.385234,-2.08915 0.385233,-0.94827 0.9779,-1.55575 0.607484,-0.6223 1.37795,-1.03716 1.452032,-0.80011 2.918883,-0.80011 0.696383,0 1.407583,0.22225 0.726016,0.20744 1.096433,0.42969 l 0.355601,0.20743 q 0.2667,0.16298 0.414867,0.2667 0.385233,0.31115 0.385233,0.7112 0,0.38523 -0.311151,0.81492 -0.57785,0.8001 -1.037166,0.8001 -0.2667,0 -0.755649,-0.32597 -0.622301,-0.50377 -1.659468,-0.50377 -0.963082,0 -1.896534,0.66676 -0.444498,0.32596 -0.740833,0.91863 -0.296333,0.59267 -0.296333,1.34831 0,0.74084 0.296333,1.3335 0.296335,0.59267 0.755651,0.93345 0.903816,0.65194 1.881716,0.65194 0.459316,0 0.859366,-0.11853 0.414868,-0.11852 0.592668,-0.23706 z"
             style="font-style:normal;font-variant:normal;font-weight:normal;font-stretch:normal;font-size:medium;line-height:1.25;font-family:'Fredoka One';-inkscape-font-specification:'Fredoka One';letter-spacing:0.1455209px;word-spacing:0px;fill:#ffffff;fill-opacity:1;stroke:none;stroke-width:0.54030883"
             id="path6553"
             inkscape:connector-curvature="0" />
          <path
             d="m 61.488954,128.20834 q 2.192865,0 3.807881,1.58539 1.615017,1.58538 1.615017,3.94123 0,2.34103 -1.540933,4.0005 -1.540933,1.64465 -3.793066,1.64465 -2.252133,0 -3.837517,-1.62983 -1.570566,-1.62984 -1.570566,-3.88197 0,-1.22978 0.444499,-2.29658 0.4445,-1.08162 1.185333,-1.80764 0.740834,-0.72601 1.703918,-1.14088 0.963083,-0.41487 1.985434,-0.41487 z m -2.696634,5.58589 q 0,1.31868 0.84455,2.14841 0.859366,0.81492 1.91135,0.81492 1.051982,0 1.896532,-0.8001 0.84455,-0.8001 0.84455,-2.14842 0,-1.34831 -0.859366,-2.16323 -0.84455,-0.81492 -1.896534,-0.81492 -1.051984,0 -1.896532,0.82974 -0.84455,0.81491 -0.84455,2.1336 z"
             style="font-style:normal;font-variant:normal;font-weight:normal;font-stretch:normal;font-size:medium;line-height:1.25;font-family:'Fredoka One';-inkscape-font-specification:'Fredoka One';letter-spacing:0.1455209px;word-spacing:0px;fill:#ffffff;fill-opacity:1;stroke:none;stroke-width:0.54030883"
             id="path6555"
             inkscape:connector-curvature="0" />
          <path
             d="m 75.186176,128.80101 q 0.148176,-0.2667 0.429683,-0.3556 0.281518,-0.0889 0.696385,-0.0889 0.429683,0 0.681565,0.0741 0.2667,0.0741 0.385234,0.17781 0.13335,0.10372 0.192612,0.31115 0.08889,0.23707 0.08889,0.75565 v 8.22325 q 0,0.3556 -0.02963,0.51859 -0.01491,0.16298 -0.133349,0.38523 -0.207434,0.40005 -1.155699,0.40005 -0.577851,0 -0.800102,-0.0889 -0.222249,-0.0889 -0.370416,-0.28151 -3.333749,-4.445 -4.385733,-5.80814 v 4.87469 q 0,0.3556 -0.02963,0.51858 -0.01491,0.16298 -0.13335,0.38523 -0.207433,0.40005 -1.1557,0.40005 -0.918634,0 -1.126066,-0.40005 -0.118524,-0.22225 -0.148175,-0.40005 -0.01491,-0.1778 -0.01491,-0.51858 v -8.2677 q 0,-0.56303 0.13335,-0.81492 0.148176,-0.2667 0.429685,-0.3556 0.281515,-0.0889 0.726016,-0.0889 0.4445,0 0.696382,0.0889 0.2667,0.0741 0.370417,0.17781 0.05926,0.0445 0.340784,0.38523 3.126316,4.25239 4.1783,5.61552 v -5.00803 q 0,-0.56304 0.13335,-0.81492 z"
             style="font-style:normal;font-variant:normal;font-weight:normal;font-stretch:normal;font-size:medium;line-height:1.25;font-family:'Fredoka One';-inkscape-font-specification:'Fredoka One';letter-spacing:0.1455209px;word-spacing:0px;fill:#ffffff;fill-opacity:1;stroke:none;stroke-width:0.54030883"
             id="path6557"
             inkscape:connector-curvature="0" />
          <path
             d="m 86.339564,128.34169 q 0.340784,0 0.503767,0.0296 0.177806,0.0149 0.385234,0.13335 0.222249,0.11853 0.311148,0.40005 0.08889,0.28152 0.08889,0.75565 0,0.47414 -0.08889,0.75566 -0.08889,0.28151 -0.311148,0.40004 -0.222251,0.10372 -0.400052,0.13335 -0.162981,0.0149 -0.518582,0.0149 h -4.5339 v 1.49649 h 2.918883 q 0.355599,0 0.518582,0.0296 0.177807,0.0149 0.400052,0.13335 0.385233,0.22225 0.385233,1.17051 0,1.03717 -0.563033,1.22979 -0.237067,0.0741 -0.755651,0.0741 h -2.904066 v 2.80035 q 0,0.3556 -0.02963,0.51858 -0.01491,0.16298 -0.133349,0.38523 -0.207432,0.40005 -1.155699,0.40005 -1.037166,0 -1.214967,-0.56303 -0.08889,-0.23707 -0.08889,-0.75565 v -8.23807 q 0,-0.75565 0.281515,-1.02235 0.281518,-0.28151 1.066802,-0.28151 z"
             style="font-style:normal;font-variant:normal;font-weight:normal;font-stretch:normal;font-size:medium;line-height:1.25;font-family:'Fredoka One';-inkscape-font-specification:'Fredoka One';letter-spacing:0.1455209px;word-spacing:0px;fill:#ffffff;fill-opacity:1;stroke:none;stroke-width:0.54030883"
             id="path6559"
             inkscape:connector-curvature="0" />
          <path
             d="m 88.884702,129.64556 q 0,-0.34078 0.01491,-0.50377 0.02963,-0.1778 0.148176,-0.40005 0.207433,-0.40005 1.1557,-0.40005 1.037167,0 1.229783,0.54822 0.07409,0.25188 0.07409,0.77047 v 8.23806 q 0,0.3556 -0.02963,0.51859 -0.01491,0.16298 -0.13335,0.38523 -0.207434,0.40005 -1.155701,0.40005 -1.037166,0 -1.214967,-0.56303 -0.08889,-0.23707 -0.08889,-0.75565 z"
             style="font-style:normal;font-variant:normal;font-weight:normal;font-stretch:normal;font-size:medium;line-height:1.25;font-family:'Fredoka One';-inkscape-font-specification:'Fredoka One';letter-spacing:0.1455209px;word-spacing:0px;fill:#ffffff;fill-opacity:1;stroke:none;stroke-width:0.54030883"
             id="path6561"
             inkscape:connector-curvature="0" />
          <path
             d="m 98.661759,132.65334 h 2.607731 q 0.8001,0.0296 0.9779,0.41487 0.14818,0.28152 0.14818,0.82973 v 3.25967 q 0,0.47413 -0.41487,0.90382 -1.2446,1.28905 -3.7338,1.28905 -2.207683,0 -3.837517,-1.65947 -1.629832,-1.67428 -1.629832,-4.03013 0,-2.35585 1.659465,-3.92642 1.659467,-1.58538 3.911601,-1.58538 1.748363,0 3.304113,1.1557 0.40005,0.29633 0.40005,0.66675 0,0.3556 -0.34078,0.82973 -0.57785,0.78528 -1.05198,0.78528 -0.28152,0 -0.90382,-0.40005 -0.622299,-0.41486 -1.481667,-0.41486 -1.126066,0 -2.000249,0.8001 -0.874183,0.78528 -0.874183,2.07433 0,1.27423 0.888999,2.17805 0.889,0.889 2.015066,0.889 0.814917,0 1.466851,-0.2667 v -1.61502 h -1.170518 q -0.459316,0 -0.651932,-0.11852 -0.192612,-0.11853 -0.251884,-0.34079 -0.05926,-0.23706 -0.05926,-0.6223 0,-0.40005 0.05926,-0.63711 0.07409,-0.23707 0.251884,-0.32597 0.2667,-0.13335 0.7112,-0.13335 z"
             style="font-style:normal;font-variant:normal;font-weight:normal;font-stretch:normal;font-size:medium;line-height:1.25;font-family:'Fredoka One';-inkscape-font-specification:'Fredoka One';letter-spacing:0.1455209px;word-spacing:0px;fill:#ffffff;fill-opacity:1;stroke:none;stroke-width:0.54030883"
             id="path6563"
             inkscape:connector-curvature="0" />
          <path
             d="m 110.98775,128.74174 q 0.14817,-0.23706 0.42968,-0.32596 0.28152,-0.0889 0.69639,-0.0889 0.42968,0 0.68156,0.0741 0.25189,0.0741 0.38524,0.17781 0.13335,0.10372 0.19261,0.31115 0.0889,0.25188 0.0889,0.77046 v 4.47464 q 0,1.9558 -1.21497,3.556 -0.59266,0.75565 -1.52611,1.22978 -0.93345,0.45932 -2.07434,0.45932 -1.12606,0 -2.05951,-0.47414 -0.91864,-0.47413 -1.49649,-1.2446 -1.20015,-1.57056 -1.20015,-3.556 v -4.45981 q 0,-0.3556 0.0149,-0.51859 0.0296,-0.1778 0.14816,-0.40004 0.11852,-0.22226 0.40005,-0.31116 0.28151,-0.0889 0.75565,-0.0889 0.47413,0 0.75565,0.0889 0.28151,0.0889 0.38523,0.31116 0.17781,0.34078 0.17781,0.93344 v 4.445 q 0,0.90382 0.4445,1.71874 0.22225,0.41486 0.66675,0.66675 0.4445,0.25188 1.05198,0.25188 1.08161,0 1.61501,-0.8001 0.53341,-0.8001 0.53341,-1.85208 v -4.5339 q 0,-0.57785 0.14815,-0.81492 z"
             style="font-style:normal;font-variant:normal;font-weight:normal;font-stretch:normal;font-size:medium;line-height:1.25;font-family:'Fredoka One';-inkscape-font-specification:'Fredoka One';letter-spacing:0.1455209px;word-spacing:0px;fill:#ffffff;fill-opacity:1;stroke:none;stroke-width:0.54030883"
             id="path6565"
             inkscape:connector-curvature="0" />
          <path
             d="m 123.26512,137.36504 q 0.22225,0.5334 0.22225,0.77047 0,0.56303 -0.91864,0.94827 -0.47413,0.20743 -0.77046,0.20743 -0.28152,0 -0.47414,-0.13335 -0.1778,-0.14818 -0.2667,-0.29633 -0.14817,-0.28152 -1.1557,-2.68182 l -0.45931,0.0296 h -1.8669 v 1.67429 q 0,0.34078 -0.0296,0.51858 -0.0149,0.16298 -0.13335,0.38523 -0.20744,0.40005 -1.1557,0.40005 -1.03717,0 -1.21497,-0.54822 -0.0889,-0.25188 -0.0889,-0.77046 v -8.22325 q 0,-0.34078 0.0149,-0.50377 0.0296,-0.17781 0.14818,-0.40005 0.20743,-0.40005 1.1557,-0.40005 h 3.2004 q 1.30386,0 2.53365,0.94827 0.59267,0.45931 0.9779,1.2446 0.38523,0.78528 0.38523,1.74836 0,1.67429 -1.11125,2.7559 0.32597,0.78529 1.00753,2.32622 z m -5.6896,-3.77825 h 1.89653 q 0.42968,0 0.85937,-0.32596 0.42968,-0.32597 0.42968,-0.9779 0,-0.65194 -0.42968,-0.9779 -0.42969,-0.34079 -0.889,-0.34079 h -1.8669 z"
             style="font-style:normal;font-variant:normal;font-weight:normal;font-stretch:normal;font-size:medium;line-height:1.25;font-family:'Fredoka One';-inkscape-font-specification:'Fredoka One';letter-spacing:0.1455209px;word-spacing:0px;fill:#ffffff;fill-opacity:1;stroke:none;stroke-width:0.54030883"
             id="path6567"
             inkscape:connector-curvature="0" />
          <path
             d="m 130.86482,129.11216 4.0005,8.2677 q 0.25188,0.50377 0.25188,0.75565 0,0.5334 -0.85936,0.96308 -0.50377,0.25189 -0.8001,0.25189 -0.28152,0 -0.47414,-0.13335 -0.1778,-0.13335 -0.2667,-0.28152 -0.0741,-0.14818 -0.22224,-0.4445 l -0.77047,-1.6002 h -4.10422 l -0.77046,1.6002 q -0.14818,0.29633 -0.23707,0.42968 -0.0741,0.13335 -0.2667,0.28152 -0.17781,0.13335 -0.47413,0.13335 -0.28152,0 -0.78529,-0.25188 -0.85936,-0.41487 -0.85936,-0.94827 0,-0.25188 0.25188,-0.75565 l 4.0005,-8.28252 q 0.16298,-0.34078 0.48895,-0.54821 0.34078,-0.20744 0.7112,-0.20744 0.8001,0 1.18533,0.77047 z m -1.20015,3.556 -0.9779,2.02988 h 1.97062 z"
             style="font-style:normal;font-variant:normal;font-weight:normal;font-stretch:normal;font-size:medium;line-height:1.25;font-family:'Fredoka One';-inkscape-font-specification:'Fredoka One';letter-spacing:0.1455209px;word-spacing:0px;fill:#ffffff;fill-opacity:1;stroke:none;stroke-width:0.54030883"
             id="path6569"
             inkscape:connector-curvature="0" />
          <path
             d="m 138.8611,137.00944 h 4.03014 q 0.48894,0 0.71119,0.11853 0.22226,0.10372 0.29633,0.34078 0.0741,0.23707 0.0741,0.63712 0,0.38523 -0.0741,0.6223 -0.0741,0.23706 -0.25188,0.32597 -0.28152,0.14815 -0.77047,0.14815 h -5.33399 q -1.03717,0 -1.21497,-0.56303 -0.0889,-0.23705 -0.0889,-0.75563 v -8.23807 q 0,-0.34078 0.0149,-0.50377 0.0296,-0.1778 0.14816,-0.40005 0.20743,-0.40005 1.1557,-0.40005 1.03717,0 1.22979,0.54822 0.0741,0.25188 0.0741,0.77047 z"
             style="font-style:normal;font-variant:normal;font-weight:normal;font-stretch:normal;font-size:medium;line-height:1.25;font-family:'Fredoka One';-inkscape-font-specification:'Fredoka One';letter-spacing:0.1455209px;word-spacing:0px;fill:#ffffff;fill-opacity:1;stroke:none;stroke-width:0.54030883"
             id="path6571"
             inkscape:connector-curvature="0" />
          <path
             d="m 151.51375,129.11216 4.0005,8.2677 q 0.25187,0.50377 0.25187,0.75565 0,0.5334 -0.85936,0.96308 -0.50377,0.25189 -0.8001,0.25189 -0.28152,0 -0.47413,-0.13335 -0.17787,-0.13335 -0.2667,-0.28152 -0.0741,-0.14818 -0.22225,-0.4445 l -0.77047,-1.6002 h -4.10421 l -0.77047,1.6002 q -0.14826,0.29633 -0.23707,0.42968 -0.0741,0.13335 -0.2667,0.28152 -0.17787,0.13335 -0.47414,0.13335 -0.2815,0 -0.78527,-0.25188 -0.85936,-0.41487 -0.85936,-0.94827 0,-0.25188 0.25187,-0.75565 l 4.0005,-8.28252 q 0.16296,-0.34078 0.48896,-0.54821 0.34077,-0.20744 0.71119,-0.20744 0.8001,0 1.18534,0.77047 z m -1.20015,3.556 -0.9779,2.02988 h 1.97061 z"
             style="font-style:normal;font-variant:normal;font-weight:normal;font-stretch:normal;font-size:medium;line-height:1.25;font-family:'Fredoka One';-inkscape-font-specification:'Fredoka One';letter-spacing:0.1455209px;word-spacing:0px;fill:#ffffff;fill-opacity:1;stroke:none;stroke-width:0.54030883"
             id="path6573"
             inkscape:connector-curvature="0" />
        </g>
      </g>
    </g>
    <g
       transform="matrix(2.0421122,0,0,2.0421122,-67.789615,63.893999)"
       style="font-style:normal;font-weight:normal;font-size:5.18254232px;line-height:1.25;font-family:sans-serif;letter-spacing:0px;word-spacing:0px;fill:#000000;fill-opacity:1;stroke:none;stroke-width:0.12956356"
       id="text844" />
  </g>
</svg>
